<svg width="140" height="32" viewBox="0 0 140 32" fill="none" xmlns="http://www.w3.org/2000/svg">
<path d="M16 0L16.9364 11.2922L22.1229 1.21793L18.6667 12.0089L27.3137 4.68629L19.9911 13.3333L30.7821 9.87707L20.7078 15.0636L32 16L20.7078 16.9364L30.7821 22.1229L19.9911 18.6667L27.3137 27.3137L18.6667 19.9911L22.1229 30.7821L16.9364 20.7078L16 32L15.0636 20.7078L9.87707 30.7821L13.3333 19.9911L4.68629 27.3137L12.0089 18.6667L1.21793 22.1229L11.2922 16.9364L0 16L11.2922 15.0636L1.21793 9.87707L12.0089 13.3333L4.68629 4.68629L13.3333 12.0089L9.87707 1.21793L15.0636 11.2922L16 0Z" fill="white"/>
<path d="M49.3595 25.288C53.5115 25.288 56.7275 22.84 57.3995 19.144H54.2075C53.6315 21.088 51.8075 22.336 49.4315 22.336C46.2155 22.336 44.1515 19.936 44.1515 16.216C44.1515 12.472 46.1915 10.12 49.4315 10.12C51.7595 10.12 53.5115 11.32 54.1115 13.36H57.3515C56.7515 9.59204 53.6555 7.16804 49.5035 7.16804C44.3675 7.16804 40.9355 10.792 40.9355 16.24C40.9355 21.736 44.2475 25.288 49.3595 25.288Z" fill="white"/>
<path d="M63.0161 25.312C64.8641 25.312 66.4721 24.472 66.9761 23.248L67.1921 25H69.7601V17.8C69.7601 14.512 67.7921 12.784 64.6001 12.784C61.3841 12.784 59.2721 14.464 59.2721 17.032H61.7681C61.7681 15.784 62.7281 15.064 64.4561 15.064C65.9441 15.064 66.9041 15.712 66.9041 17.32V17.584L63.3521 17.848C60.5441 18.064 58.9601 19.432 58.9601 21.616C58.9601 23.848 60.4961 25.312 63.0161 25.312ZM63.9761 23.104C62.6561 23.104 61.9361 22.576 61.9361 21.496C61.9361 20.536 62.6321 19.936 64.4561 19.768L66.9281 19.576V20.2C66.9281 22.024 65.7761 23.104 63.9761 23.104Z" fill="white"/>
<path d="M75.5885 25V7.14404H72.6845V25H75.5885Z" fill="white"/>
<path d="M77.964 19.048C77.964 22.816 80.316 25.312 83.916 25.312C87.012 25.312 89.316 23.416 89.676 20.656H86.724C86.412 21.952 85.38 22.672 83.916 22.672C82.044 22.672 80.892 21.28 80.892 19.048C80.892 16.816 82.14 15.4 84.012 15.4C85.404 15.4 86.388 16.096 86.724 17.44H89.652C89.34 14.584 87.132 12.784 83.892 12.784C80.388 12.784 77.964 15.376 77.964 19.048Z" fill="white"/>
<path d="M99.8953 13.144V19.36C99.8953 21.616 99.0073 22.696 97.1593 22.696C95.5273 22.696 94.6393 21.784 94.6393 19.528V13.144H91.7113V20.56C91.7113 23.464 93.3193 25.312 96.0553 25.312C97.6393 25.312 99.1753 24.544 99.8953 23.416L100.111 25H102.823V13.144H99.8953Z" fill="white"/>
<path d="M109.879 25V15.592H112.183V13.144H109.879V9.44804H106.951V13.144H104.671V15.592H106.951V25H109.879Z" fill="white"/>
<path d="M118.364 25V15.592H120.668V13.144H118.364V9.44804H115.436V13.144H113.156V15.592H115.436V25H118.364Z" fill="white"/>
<path d="M125.946 25.312C127.794 25.312 129.402 24.472 129.906 23.248L130.122 25H132.69V17.8C132.69 14.512 130.722 12.784 127.53 12.784C124.314 12.784 122.202 14.464 122.202 17.032H124.698C124.698 15.784 125.658 15.064 127.386 15.064C128.874 15.064 129.834 15.712 129.834 17.32V17.584L126.282 17.848C123.474 18.064 121.89 19.432 121.89 21.616C121.89 23.848 123.426 25.312 125.946 25.312ZM126.906 23.104C125.586 23.104 124.866 22.576 124.866 21.496C124.866 20.536 125.562 19.936 127.386 19.768L129.858 19.576V20.2C129.858 22.024 128.706 23.104 126.906 23.104Z" fill="white"/>
<path d="M137.534 25.288C138.59 25.288 139.478 24.424 139.478 23.392C139.478 22.336 138.59 21.472 137.534 21.472C136.478 21.472 135.59 22.336 135.59 23.392C135.59 24.424 136.478 25.288 137.534 25.288Z" fill="white"/>
</svg>
